<?xml version="1.0" standalone="no"?>
<!DOCTYPE svg PUBLIC "-//W3C//DTD SVG 20010904//EN"
 "http://www.w3.org/TR/2001/REC-SVG-20010904/DTD/svg10.dtd">
<svg version="1.0" xmlns="http://www.w3.org/2000/svg"
 width="700.000000pt" height="700.000000pt" viewBox="0 0 700.000000 700.000000"
 preserveAspectRatio="xMidYMid meet">
<metadata>
Created by potrace 1.11, written by Peter Selinger 2001-2013
</metadata>
<g transform="translate(0.000000,700.000000) scale(0.100000,-0.100000)"
fill="#000000" stroke="none">
<path d="M3375 6881 c-236 -114 -388 -187 -500 -241 -140 -67 -365 -176 -590
-285 -88 -43 -218 -106 -290 -140 -71 -34 -202 -97 -290 -140 -207 -100 -419
-203 -570 -275 -215 -104 -407 -196 -590 -285 -99 -48 -239 -116 -311 -150
-111 -53 -133 -67 -141 -91 -12 -36 -11 -3543 0 -3562 5 -7 59 -37 120 -66
174 -84 604 -291 862 -416 94 -45 220 -106 280 -135 109 -52 265 -127 590
-285 94 -45 229 -110 300 -145 72 -34 189 -90 260 -125 203 -98 407 -196 565
-273 324 -156 413 -197 431 -197 20 0 107 43 2424 1190 347 171 687 339 757
373 79 39 132 70 139 84 18 33 17 3534 0 3566 -8 15 -94 62 -259 144 -136 67
-521 257 -857 423 -1023 507 -1647 816 -1921 951 -144 71 -272 129 -285 129
-13 0 -69 -22 -124 -49z m573 -312 c246 -122 605 -299 797 -394 193 -95 679
-336 1080 -535 402 -199 762 -377 802 -397 l72 -35 0 -1707 0 -1706 -102 -52
c-104 -53 -942 -467 -1522 -753 -176 -87 -602 -298 -948 -468 l-627 -311 -148
70 c-270 130 -386 186 -542 262 -85 41 -216 104 -290 140 -74 35 -209 101
-300 145 -202 98 -428 207 -575 277 -60 29 -182 87 -270 130 -88 43 -223 108
-300 145 -77 37 -201 97 -275 132 -74 36 -207 100 -295 142 -88 43 -188 91
-222 109 l-63 32 0 1708 0 1708 72 33 c40 19 167 80 283 136 116 56 246 119
290 140 44 21 170 82 280 135 110 54 241 117 290 140 50 24 180 86 290 140
110 53 243 118 295 142 52 25 178 86 280 135 102 50 235 114 295 143 135 64
473 227 855 412 25 12 46 22 48 22 1 1 204 -99 450 -220z"/>
<path d="M3469 3813 c-1 -417 -3 -767 -4 -778 -1 -11 -5 -48 -9 -82 -8 -78
-38 -196 -70 -273 -94 -233 -274 -379 -526 -426 -57 -10 -239 -11 -294 -1 -58
10 -166 45 -181 58 -27 25 -30 3 -30 -208 0 -122 4 -221 9 -225 13 -9 134 -21
221 -22 124 -2 282 21 380 55 196 69 333 171 451 335 l54 76 0 -201 c0 -111 3
-201 8 -201 11 -1 322 -1 380 -1 l52 1 0 1325 0 1325 -220 0 -220 0 -1 -757z"/>
</g>
</svg>
